<?xml version="1.0" encoding="UTF-8"?>
<svg xmlns="http://www.w3.org/2000/svg" xmlns:xlink="http://www.w3.org/1999/xlink" width="50px" height="50px" viewBox="0 0 50 50" version="1.1">
<g id="surface1">
<path style=" stroke:none;fill-rule:nonzero;fill:rgb(40%,40%,40%);fill-opacity:1;" d="M 46.632812 4.980469 L 41.179688 4.980469 C 41.128906 4.980469 41.085938 5.003906 41.035156 5.011719 C 40.929688 5.019531 40.832031 5.039062 40.734375 5.070312 C 40.652344 5.097656 40.578125 5.132812 40.503906 5.171875 C 40.417969 5.21875 40.339844 5.269531 40.265625 5.332031 C 40.195312 5.390625 40.136719 5.453125 40.082031 5.523438 C 40.023438 5.59375 39.972656 5.667969 39.925781 5.75 C 39.882812 5.835938 39.847656 5.921875 39.820312 6.015625 C 39.804688 6.070312 39.773438 6.109375 39.761719 6.164062 L 38.9375 10.679688 L 3.640625 12.742188 C 3.503906 12.730469 3.386719 12.75 3.234375 12.765625 C 2.449219 12.835938 1.867188 13.523438 1.925781 14.308594 C 1.929688 14.367188 1.9375 14.425781 1.949219 14.480469 L 4.410156 27.894531 C 4.972656 29.972656 6.703125 32.074219 9.308594 32.074219 L 35.019531 32.074219 L 34.46875 35.082031 L 12.835938 35.082031 C 10.097656 35.082031 7.867188 37.3125 7.867188 40.050781 C 7.867188 42.789062 10.097656 45.019531 12.835938 45.019531 C 15.574219 45.019531 17.804688 42.789062 17.804688 40.050781 C 17.804688 39.304688 17.628906 38.601562 17.332031 37.964844 L 30.617188 37.964844 C 30.320312 38.601562 30.140625 39.304688 30.140625 40.050781 C 30.140625 42.789062 32.371094 45.019531 35.109375 45.019531 C 37.847656 45.019531 40.078125 42.789062 40.078125 40.050781 C 40.078125 38.101562 38.941406 36.429688 37.304688 35.617188 L 42.382812 7.863281 L 46.632812 7.863281 C 47.429688 7.863281 48.078125 7.21875 48.078125 6.421875 C 48.078125 5.625 47.429688 4.980469 46.632812 4.980469 Z M 36.582031 23.546875 L 30.46875 23.644531 L 30.800781 20.101562 L 37.246094 19.910156 Z M 6.046875 20.84375 L 12.15625 20.660156 L 12.554688 23.925781 L 6.628906 24.019531 Z M 14.082031 20.601562 L 20.796875 20.402344 L 20.796875 23.796875 L 14.488281 23.894531 Z M 20.796875 18.476562 L 13.847656 18.683594 L 13.40625 15.058594 L 20.796875 14.628906 Z M 22.71875 14.515625 L 29.433594 14.121094 L 29.046875 18.230469 L 22.71875 18.417969 Z M 20.796875 25.71875 L 20.796875 29.1875 L 15.136719 29.1875 L 14.722656 25.816406 Z M 22.71875 25.6875 L 28.355469 25.601562 L 28.015625 29.1875 L 22.71875 29.1875 Z M 22.71875 23.765625 L 22.71875 20.34375 L 28.863281 20.160156 L 28.535156 23.675781 Z M 37.601562 17.972656 L 30.984375 18.171875 L 31.375 14.007812 L 38.402344 13.597656 Z M 11.480469 15.171875 L 11.917969 18.742188 L 5.695312 18.929688 C 5.433594 17.503906 5.226562 16.398438 5.046875 15.546875 Z M 7.222656 27.257812 L 6.980469 25.9375 L 12.789062 25.84375 L 13.199219 29.1875 L 9.308594 29.1875 C 8.074219 29.1875 7.386719 27.851562 7.222656 27.257812 Z M 29.949219 29.1875 L 30.289062 25.570312 L 36.226562 25.476562 L 35.546875 29.1875 Z M 14.917969 40.050781 C 14.917969 41.199219 13.984375 42.136719 12.835938 42.136719 C 11.6875 42.136719 10.753906 41.199219 10.753906 40.050781 C 10.753906 38.902344 11.6875 37.964844 12.835938 37.964844 C 13.984375 37.964844 14.917969 38.902344 14.917969 40.050781 Z M 35.109375 42.136719 C 33.960938 42.136719 33.027344 41.199219 33.027344 40.050781 C 33.027344 38.902344 33.960938 37.964844 35.109375 37.964844 C 36.257812 37.964844 37.195312 38.902344 37.195312 40.050781 C 37.195312 41.199219 36.257812 42.136719 35.109375 42.136719 Z M 35.109375 42.136719 "/>
</g>
</svg>
